<svg width="1024" height="130" viewBox="0 0 1024 130" fill="none" xmlns="http://www.w3.org/2000/svg">
<path d="M0 0H1024V130H0V0Z" fill="#030303"/>
<path d="M69 75H20L44.5 49L69 75ZM33.3075 62.1309L36.6442 65.6702L39.981 62.1309L36.6442 58.5812L33.3075 62.1309ZM36.6442 74.0052L39.981 70.466L36.6442 66.9162L33.3075 70.466L36.6442 74.0052ZM52.4083 74.0052L55.745 70.466L52.4083 66.9162L49.019 70.466L52.4083 74.0052ZM48.4673 54.4031C48.4473 54.4376 48.4207 54.4694 48.3885 54.4974C47.3507 55.6178 46.2997 56.7382 45.2357 57.8482C45.1437 57.9424 45.2357 58.0052 45.2357 58.089L48.3097 61.356L48.4542 61.4921L51.7909 57.9634L48.4673 54.4031ZM28.7885 74.0052L28.9198 73.8691L31.9938 70.6126C32.0428 70.5717 32.0702 70.5173 32.0702 70.4607C32.0702 70.4042 32.0428 70.3498 31.9938 70.3089C31.0611 69.3456 30.1547 68.3613 29.2351 67.3874L28.7885 66.9162L25.4517 70.466L28.7885 74.0052ZM37.2354 57.9529L40.5721 61.4921L40.6772 61.3979L43.8169 58.0681C43.922 57.9529 43.8169 57.89 43.8169 57.8063L40.7429 54.5602L40.6115 54.4241L37.2354 57.9529ZM37.2354 66.3298L40.5721 69.8691L40.7429 69.7016C41.7413 68.6545 42.7528 67.6073 43.7643 66.4869C43.7926 66.4663 43.8152 66.4412 43.8307 66.4133C43.8461 66.3853 43.8541 66.3551 43.8541 66.3246C43.8541 66.2941 43.8461 66.2639 43.8307 66.2359C43.8152 66.208 43.7926 66.1829 43.7643 66.1623C42.8185 65.1675 41.8727 64.1728 40.9399 63.1675L40.5721 62.7906L37.2354 66.3298ZM52.9995 66.3298L56.3362 69.8691L59.6729 66.3298L56.3362 62.7906L52.9995 66.3298ZM48.4673 62.7801V62.8534L45.3013 66.2147C45.1962 66.3089 45.2357 66.3717 45.3013 66.4555L48.244 69.5969C48.3228 69.6911 48.4147 69.7853 48.5198 69.8901L51.8566 66.3508L48.4673 62.7801ZM32.7295 69.8482C32.7453 69.8175 32.7675 69.7892 32.7952 69.7644L35.9611 66.4031C36.0531 66.2984 35.9611 66.2461 35.9611 66.1623L32.8477 62.8953C32.8069 62.8484 32.7583 62.8061 32.7032 62.7696L29.3796 66.2984L32.7295 69.8482ZM52.3558 65.6597L55.6925 62.1204L52.3558 58.5916L49.019 62.1309L52.3558 65.6597ZM44.4737 57.2827L47.8105 53.7435L44.5263 50.2775H44.4606L41.2552 53.712C41.2354 53.7371 41.2249 53.7662 41.2249 53.7958C41.2249 53.8255 41.2354 53.8545 41.2552 53.8796L44.4737 57.2827ZM44.4737 65.6597L47.8105 62.1204L44.5 58.5812L41.1633 62.1309L44.4737 65.6597ZM44.4737 74.0366L47.8105 70.4974L44.4737 66.9476L41.1633 70.466L44.4737 74.0366ZM60.2378 74.0366L63.5745 70.4974L60.2509 66.9791H60.1853L56.9668 70.3613C56.8617 70.4764 56.9668 70.5288 56.9668 70.6021L59.5941 73.4398L60.2378 74.0366ZM21.8917 74.2356H27.882L24.9131 71.0942L21.8917 74.2356ZM61.1705 74.2356H67.1083L64.1394 71.0942L61.1705 74.2356ZM43.5542 74.2356L40.5721 71.0942L37.5901 74.2356H43.5542ZM53.3147 74.2356H59.2525L56.2836 71.0942L53.3147 74.2356ZM51.3968 74.2356L48.4279 71.0942L45.459 74.2356H51.3968ZM35.6327 74.2356L32.6638 71.0942L29.6949 74.2356H35.6327Z" fill="white"/>
<path d="M95.26 74.72H95.4C95.5493 74.72 95.68 74.6733 95.792 74.58C95.904 74.468 95.9973 74.3373 96.072 74.188C96.1653 74.0387 96.2307 73.88 96.268 73.712C96.324 73.544 96.352 73.3853 96.352 73.236V58.256C96.352 58.1253 96.324 57.976 96.268 57.808C96.2307 57.64 96.1653 57.4813 96.072 57.332C95.9973 57.1827 95.904 57.0613 95.792 56.968C95.68 56.856 95.5493 56.8 95.4 56.8H95.26V56.52H99.292V56.8H99.152C99.0027 56.8 98.872 56.856 98.76 56.968C98.648 57.0613 98.5547 57.1827 98.48 57.332C98.4053 57.4813 98.34 57.64 98.284 57.808C98.2467 57.976 98.228 58.1253 98.228 58.256V73.964H104.36C104.715 73.964 105.023 73.88 105.284 73.712C105.545 73.544 105.76 73.3387 105.928 73.096C106.115 72.8347 106.245 72.564 106.32 72.284C106.413 71.9853 106.46 71.7147 106.46 71.472H106.74V75H95.26V74.72ZM121.563 56.24C123.019 56.24 124.326 56.5013 125.483 57.024C126.641 57.528 127.621 58.2187 128.423 59.096C129.245 59.9547 129.87 60.9627 130.299 62.12C130.747 63.2587 130.971 64.4533 130.971 65.704C130.971 67.104 130.71 68.392 130.187 69.568C129.683 70.744 128.983 71.752 128.087 72.592C127.191 73.432 126.146 74.0947 124.951 74.58C123.775 75.0467 122.515 75.28 121.171 75.28C119.734 75.28 118.437 75.0187 117.279 74.496C116.141 73.9733 115.17 73.2827 114.367 72.424C113.583 71.5653 112.977 70.576 112.547 69.456C112.118 68.336 111.903 67.1693 111.903 65.956C111.903 64.7613 112.118 63.5853 112.547 62.428C112.977 61.252 113.602 60.2067 114.423 59.292C115.263 58.3773 116.281 57.64 117.475 57.08C118.67 56.52 120.033 56.24 121.563 56.24ZM121.535 74.3C122.786 74.244 123.878 73.964 124.811 73.46C125.763 72.9373 126.557 72.284 127.191 71.5C127.826 70.6973 128.293 69.82 128.591 68.868C128.909 67.916 129.067 66.9733 129.067 66.04C129.067 65.0133 128.881 63.9773 128.507 62.932C128.134 61.8867 127.602 60.944 126.911 60.104C126.221 59.2453 125.39 58.5547 124.419 58.032C123.467 57.4907 122.394 57.22 121.199 57.22C120.042 57.22 119.006 57.4813 118.091 58.004C117.177 58.508 116.393 59.1613 115.739 59.964C115.105 60.7667 114.619 61.6627 114.283 62.652C113.947 63.6413 113.779 64.612 113.779 65.564C113.779 66.5907 113.975 67.6267 114.367 68.672C114.759 69.6987 115.301 70.632 115.991 71.472C116.682 72.312 117.494 72.9933 118.427 73.516C119.379 74.0387 120.415 74.3 121.535 74.3ZM138.428 56.52H142.404V56.8H142.264C142.115 56.8 141.984 56.856 141.872 56.968C141.76 57.0613 141.657 57.1827 141.564 57.332C141.489 57.4813 141.433 57.64 141.396 57.808C141.359 57.976 141.34 58.1253 141.34 58.256V69.316C141.34 70.044 141.415 70.716 141.564 71.332C141.713 71.948 141.965 72.48 142.32 72.928C142.675 73.376 143.141 73.7307 143.72 73.992C144.299 74.2347 145.008 74.356 145.848 74.356C146.781 74.356 147.528 74.2067 148.088 73.908C148.648 73.6093 149.077 73.2267 149.376 72.76C149.675 72.2747 149.871 71.7333 149.964 71.136C150.057 70.5387 150.104 69.9507 150.104 69.372V58.256C150.104 58.1253 150.085 57.976 150.048 57.808C150.011 57.64 149.945 57.4813 149.852 57.332C149.777 57.1827 149.684 57.0613 149.572 56.968C149.46 56.856 149.339 56.8 149.208 56.8H149.068V56.52H152.12V56.8H151.98C151.831 56.8 151.7 56.856 151.588 56.968C151.495 57.0613 151.401 57.1827 151.308 57.332C151.233 57.4813 151.177 57.64 151.14 57.808C151.103 57.976 151.084 58.1253 151.084 58.256V69.288C151.084 70.5013 150.935 71.5 150.636 72.284C150.337 73.0493 149.927 73.656 149.404 74.104C148.881 74.552 148.265 74.86 147.556 75.028C146.865 75.196 146.128 75.28 145.344 75.28C144.504 75.28 143.72 75.1867 142.992 75C142.283 74.832 141.667 74.524 141.144 74.076C140.621 73.628 140.211 73.0213 139.912 72.256C139.613 71.472 139.464 70.492 139.464 69.316V58.256C139.464 58.1253 139.445 57.976 139.408 57.808C139.371 57.64 139.305 57.4813 139.212 57.332C139.137 57.1827 139.044 57.0613 138.932 56.968C138.82 56.856 138.699 56.8 138.568 56.8H138.428V56.52ZM162.076 57.5C162.076 57.612 162.104 57.752 162.16 57.92L167.088 71.192L172.016 57.78C172.034 57.7427 172.053 57.6867 172.072 57.612C172.09 57.5373 172.1 57.4813 172.1 57.444C172.1 57.22 172.006 57.0613 171.82 56.968C171.652 56.856 171.493 56.8 171.344 56.8V56.52H174.396V56.8C174.116 56.8 173.854 56.8747 173.612 57.024C173.388 57.1733 173.21 57.4253 173.08 57.78L166.668 75.336L160.116 57.864C160.004 57.584 159.836 57.3413 159.612 57.136C159.406 56.9307 159.145 56.8187 158.828 56.8V56.52H162.804V56.8C162.636 56.8 162.468 56.8653 162.3 56.996C162.15 57.108 162.076 57.276 162.076 57.5ZM185.076 74.72H185.216V75H181.268V74.72H181.408C181.538 74.72 181.66 74.664 181.772 74.552C181.884 74.44 181.977 74.3093 182.052 74.16C182.145 74.0107 182.21 73.852 182.248 73.684C182.285 73.4973 182.304 73.3293 182.304 73.18V58.256C182.304 58.1253 182.285 57.976 182.248 57.808C182.21 57.64 182.145 57.4813 182.052 57.332C181.977 57.1827 181.884 57.0613 181.772 56.968C181.66 56.856 181.538 56.8 181.408 56.8H181.268V56.52H186.14C188.006 56.52 189.444 56.884 190.452 57.612C191.478 58.34 191.992 59.4133 191.992 60.832C191.992 61.5413 191.87 62.1667 191.628 62.708C191.404 63.2307 191.096 63.688 190.704 64.08C190.312 64.4533 189.845 64.7613 189.304 65.004C188.781 65.228 188.221 65.396 187.624 65.508L189.64 68.588C190.125 69.3347 190.62 70.072 191.124 70.8C191.628 71.5093 192.122 72.2467 192.608 73.012C192.738 73.1987 192.878 73.3947 193.028 73.6C193.196 73.8053 193.364 73.992 193.532 74.16C193.718 74.328 193.905 74.468 194.092 74.58C194.297 74.6733 194.502 74.72 194.708 74.72V75H193.504C192.757 75 192.141 74.8227 191.656 74.468C191.189 74.0947 190.797 73.6653 190.48 73.18C189.64 71.948 188.8 70.6973 187.96 69.428C187.138 68.1587 186.317 66.908 185.496 65.676C185.29 65.6573 185.066 65.6387 184.824 65.62C184.6 65.5827 184.385 65.5453 184.18 65.508V73.18C184.18 73.3293 184.198 73.4973 184.236 73.684C184.273 73.852 184.329 74.0107 184.404 74.16C184.497 74.3093 184.59 74.44 184.684 74.552C184.796 74.664 184.926 74.72 185.076 74.72ZM184.18 57.472V64.584H184.32C184.469 64.6027 184.702 64.6213 185.02 64.64C185.356 64.64 185.766 64.64 186.252 64.64C186.644 64.64 187.054 64.584 187.484 64.472C187.932 64.3413 188.342 64.136 188.716 63.856C189.108 63.5573 189.425 63.1747 189.668 62.708C189.929 62.2413 190.06 61.6533 190.06 60.944C190.06 60.2347 189.92 59.656 189.64 59.208C189.378 58.76 189.005 58.4053 188.52 58.144C188.053 57.8827 187.484 57.7053 186.812 57.612C186.14 57.5187 185.402 57.472 184.6 57.472H184.18ZM201.389 74.72H201.529C201.678 74.72 201.809 74.6733 201.921 74.58C202.033 74.468 202.126 74.3373 202.201 74.188C202.294 74.0387 202.36 73.88 202.397 73.712C202.453 73.544 202.481 73.3853 202.481 73.236V58.256C202.481 58.1253 202.453 57.976 202.397 57.808C202.36 57.64 202.294 57.4813 202.201 57.332C202.126 57.1827 202.033 57.0613 201.921 56.968C201.809 56.856 201.678 56.8 201.529 56.8H201.389V56.52H212.169V59.124H211.889C211.852 58.6947 211.684 58.3213 211.385 58.004C211.086 57.668 210.62 57.5 209.985 57.5H204.357V64.584H209.005C209.434 64.584 209.789 64.4533 210.069 64.192C210.368 63.9307 210.517 63.6227 210.517 63.268H210.797V66.768H210.517C210.517 66.432 210.377 66.1427 210.097 65.9C209.817 65.6573 209.453 65.536 209.005 65.536H204.357V74.02H210.489C210.844 74.02 211.152 73.936 211.413 73.768C211.674 73.6 211.889 73.404 212.057 73.18C212.244 72.9373 212.374 72.6853 212.449 72.424C212.542 72.144 212.589 71.9107 212.589 71.724H212.869V75H201.389V74.72Z" fill="white"/>
<rect x="972" y="56" width="32" height="2" fill="white"/>
<rect x="972" y="64" width="32" height="2" fill="white"/>
<rect x="972" y="72" width="32" height="2" fill="white"/>
</svg>
